<svg xmlns="http://www.w3.org/2000/svg" version="1.1" xmlns:xlink="http://www.w3.org/1999/xlink" xmlns:svgjs="http://svgjs.dev/svgjs" width="188" height="188"><svg width="188" height="188" viewBox="0 0 188 188" fill="none" xmlns="http://www.w3.org/2000/svg">
<path d="M95.2748 31.2507C99.5911 28.4445 103.836 25.5208 108.237 22.8555C118.878 16.4125 129.593 10.0925 140.273 3.71497C141.062 3.29564 141.808 2.79985 142.5 2.23475C143.853 0.957844 145.6 0.179375 147.454 0.0273951C149.308 -0.124585 151.159 0.358979 152.701 1.39854C153.578 1.80905 154.353 2.41024 154.968 3.15824C155.583 3.90623 156.024 4.78216 156.257 5.72209C156.491 6.66202 156.512 7.64224 156.318 8.59119C156.124 9.54015 155.721 10.4339 155.138 11.2072C154.834 11.6951 154.629 12.2384 154.536 12.8057C154.442 13.373 154.462 13.9532 154.594 14.5129C155.284 16.0477 155.42 17.7745 154.978 19.3983C154.536 21.0221 153.544 22.4421 152.172 23.4156C147.819 26.8266 143.3 30.027 138.844 33.3033C137.176 34.5276 135.485 35.7274 133.804 36.9383L134.246 37.556C138.959 34.7088 143.653 31.8231 148.4 29.0298C151.099 27.4424 153.885 26.0057 156.634 24.504L157.596 24.0272C159.236 23.0575 161.172 22.7137 163.046 23.0592C164.92 23.4047 166.606 24.4162 167.793 25.9071C168.752 27.5755 169.011 29.5563 168.513 31.4153C168.014 33.2742 166.799 34.8597 165.134 35.8242C158.241 41.2455 150.84 46.0308 144.048 51.5672C126.701 65.7081 109.571 80.1105 92.3621 94.4186C91.8274 94.8391 91.4642 95.4399 91.3404 96.1088C93.2663 94.7988 95.2105 93.5169 97.1143 92.175C112.008 81.1284 127.614 71.0763 143.832 62.0841C148.833 59.5062 154.034 57.3362 159.385 55.5952C161.101 54.8471 163.031 54.75 164.814 55.3222C166.596 55.8944 168.11 57.0966 169.07 58.7038C169.985 60.3251 170.332 62.2064 170.053 64.0475C169.775 65.8886 168.887 67.5834 167.533 68.8614C165.307 71.269 162.504 73.1349 160.038 75.3326C159.303 75.9894 158.238 77.0411 158.344 77.7616C158.506 79.883 158.046 82.0055 157.018 83.8686C155.991 85.7317 154.442 87.2542 152.562 88.2492C141.287 96.937 129.874 105.447 118.525 114.04C117.482 114.831 116.521 115.73 115.521 116.58L115.854 117.151C118.521 116.041 121.267 115.089 123.841 113.794C133.272 109.048 142.601 104.097 152.068 99.4218C155.353 97.8093 158.786 96.5178 162.32 95.5652C163.787 95.0653 165.385 95.118 166.815 95.7135C168.245 96.309 169.409 97.4063 170.087 98.7992C170.75 100.245 170.859 101.884 170.394 103.405C169.928 104.926 168.92 106.222 167.561 107.049C165.094 108.914 162.428 110.515 159.851 112.234L160.265 112.993C164.08 111.126 167.889 109.245 171.713 107.399C173.646 106.466 175.569 105.484 177.567 104.72C179.045 103.876 180.792 103.637 182.442 104.052C184.092 104.467 185.518 105.506 186.419 106.949C187.321 108.392 187.629 110.128 187.279 111.793C186.929 113.459 185.948 114.924 184.541 115.882C180.185 119.452 175.583 122.73 170.988 125.997C164.494 130.615 157.908 135.103 151.372 139.662C150.482 140.228 149.786 141.053 149.378 142.025C153.338 140.592 157.34 139.26 161.249 137.697C165.656 135.936 169.956 133.914 174.349 132.121C175.761 131.565 177.24 131.197 178.748 131.025C179.862 130.804 181.018 130.942 182.047 131.421C183.077 131.9 183.928 132.694 184.477 133.688C185.022 134.68 185.25 135.815 185.132 136.94C185.013 138.065 184.554 139.127 183.814 139.984L182.391 141.947C183.391 142.31 184.212 142.568 185.001 142.903C185.897 143.228 186.657 143.846 187.159 144.657C187.661 145.468 187.875 146.424 187.767 147.371C187.836 148.381 187.518 149.379 186.877 150.162C186.237 150.946 185.322 151.456 184.319 151.589C178.869 152.639 173.679 154.749 169.043 157.801C154.829 164.797 140.709 171.984 126.509 179.009C123.829 180.253 121.082 181.347 118.282 182.288C116.665 183.019 114.844 183.161 113.134 182.688C111.424 182.216 109.933 181.158 108.922 179.7C107.82 178.292 106.914 178.426 105.494 178.961C98.3797 181.648 91.2706 184.364 84.0605 186.774C81.9861 187.297 79.8277 187.397 77.7136 187.069C76.3555 186.986 75.0559 186.487 73.9914 185.64C72.9269 184.792 72.1492 183.638 71.764 182.333C71.302 181.055 71.2262 179.67 71.5462 178.35C71.8661 177.03 72.5676 175.834 73.5632 174.91C74.9913 173.647 76.2792 172.234 77.4045 170.695C75.7413 171.436 74.0347 172.076 72.2941 172.611C69.6795 173.44 66.9695 173.932 64.2301 174.073C62.94 174.121 61.6622 173.808 60.5412 173.167C59.4202 172.527 58.5008 171.586 57.8869 170.45C57.273 169.314 56.9892 168.03 57.0675 166.741C57.1458 165.452 57.5832 164.211 58.3301 163.158L59.0322 161.758C57.9499 161.758 57.1345 161.691 56.3344 161.769C54.6204 162.178 52.8232 162.06 51.1769 161.432C49.5306 160.805 48.1114 159.696 47.1042 158.25C46.7601 158 46.3581 157.84 45.9358 157.787C45.5134 157.733 45.0844 157.787 44.6886 157.944C40.0276 160.773 35.5809 163.971 30.8305 166.631C26.8952 168.873 22.7622 170.749 18.4838 172.234C16.8376 172.769 15.059 172.731 13.4374 172.126C11.8158 171.521 10.4467 170.384 9.55291 168.902C8.73187 167.911 7.61722 167.206 6.36967 166.889C5.07168 166.69 3.84862 166.154 2.82257 165.334C1.79651 164.514 1.00333 163.44 0.522182 162.218C0.0410299 160.996 -0.111268 159.67 0.0804866 158.371C0.272241 157.072 0.801343 155.845 1.61499 154.815C5.10092 150.738 8.82727 146.874 12.7741 143.242C19.9242 136.083 27.0951 128.944 34.2868 121.826C34.9414 121.23 35.3788 120.434 35.5301 119.561C34.4173 120.134 33.2727 120.643 32.102 121.085C29.7911 122.003 27.3867 122.666 24.9317 123.061C23.7909 123.245 22.6223 123.144 21.5301 122.767C20.4379 122.389 19.4562 121.747 18.6726 120.898C17.8889 120.049 17.3277 119.019 17.039 117.9C16.7503 116.781 16.7432 115.608 17.0182 114.486C17.2937 112.755 16.6987 112.123 15.2975 111.453C14.3022 111.09 13.3925 110.526 12.625 109.796C11.8575 109.066 11.2487 108.186 10.8367 107.21C10.4247 106.234 10.2183 105.184 10.2304 104.124C10.2425 103.065 10.4728 102.02 10.907 101.054C12.0841 97.7377 14.3093 94.8953 17.246 92.9568C19.8826 91.0064 22.4463 88.9575 24.9935 86.9894C24.1403 85.9975 23.5066 84.8362 23.1341 83.582C22.7616 82.3278 22.6587 81.0089 22.8322 79.7121C23.0056 78.4152 23.4515 77.1698 24.1405 76.0575C24.8295 74.9453 25.7461 73.9914 26.83 73.2586C32.5715 67.3867 37.7222 60.8965 43.7649 55.3693C52.075 47.7675 60.8993 40.716 69.6514 33.6118C82.9683 22.5645 97.4822 13.0456 112.921 5.23374C114.513 4.41742 116.151 3.69326 117.826 3.06485C118.705 2.68817 119.689 2.63601 120.602 2.91769C121.516 3.19936 122.3 3.79653 122.814 4.6026C123.333 5.34996 123.572 6.25642 123.488 7.16256C123.405 8.0687 123.005 8.91649 122.359 9.55684C121.598 10.4352 120.72 11.2033 119.747 11.839C112.08 17.5831 104.407 23.3171 96.7262 29.0408C96.0596 29.5403 95.4719 30.1427 94.8475 30.7016L95.2748 31.2507Z" fill="#3B5AC7"></path>
</svg><style>@media (prefers-color-scheme: light) { :root { filter: none; } }
@media (prefers-color-scheme: dark) { :root { filter: none; } }
</style></svg>